<svg xmlns="http://www.w3.org/2000/svg" version="1.1" xmlns:xlink="http://www.w3.org/1999/xlink" xmlns:svgjs="http://svgjs.dev/svgjs" width="1000" height="308" viewBox="0 0 1000 308"><g transform="matrix(1,0,0,1,-0.6060606060606233,0.39633788300756123)"><svg viewBox="0 0 396 122" data-background-color="#ffffff" preserveAspectRatio="xMidYMid meet" height="308" width="1000" xmlns="http://www.w3.org/2000/svg" xmlns:xlink="http://www.w3.org/1999/xlink"><g id="tight-bounds" transform="matrix(1,0,0,1,0.2400000000000091,-0.1569909796328659)"><svg viewBox="0 0 395.52 122.31398042945985" height="122.31398042945985" width="395.52"><g><svg viewBox="0 0 395.52 122.31398042945985" height="122.31398042945985" width="395.52"><g><svg viewBox="0 0 395.52 122.31398042945985" height="122.31398042945985" width="395.52"><g><svg viewBox="0 0 670.1951093841099 207.2568555145826" height="122.31398042945985" width="395.52"><g transform="matrix(1,0,0,1,274.67510938410993,0)"><svg viewBox="0 0 395.52 207.2568555145826" height="207.2568555145826" width="395.52"><g id="textblocktransform"><svg viewBox="0 0 395.52 207.2568555145826" height="207.2568555145826" width="395.52" id="textblock"><g><svg viewBox="0 0 395.52 207.2568555145826" height="207.2568555145826" width="395.52"><g transform="matrix(1,0,0,1,0,0)"><svg width="395.52" viewBox="3.5 -30.100000381469727 58.20487976074219 30.5" height="207.2568555145826" data-palette-color="#111111"><path d="M19.05-1.95L19.05-21.75Q19.05-22.4 18.85-23.03 18.65-23.65 18.35-24.2L18.35-24.2Q17.7-25.4 15.65-25.4L15.65-25.4 12.45-25.4Q10.4-25.4 9.7-24.2L9.7-24.2Q9.1-23.05 9.1-21.75L9.1-21.75 9.1-1.95Q9.1 0.4 6.35 0.4L6.35 0.4Q3.5 0.4 3.5-1.95L3.5-1.95 3.5-22.2Q3.5-26.3 6.2-28.2L6.2-28.2Q8.95-30.1 11.55-30.1L11.55-30.1 16.6-30.1Q17.75-30.1 19.15-29.65 20.55-29.2 21.85-28.25L21.85-28.25Q23.1-29.2 24.48-29.65 25.85-30.1 27.1-30.1L27.1-30.1 32.1-30.1Q34.75-30.1 37.4-28.2L37.4-28.2Q40.15-26.35 40.15-22.2L40.15-22.2 40.15-1.95Q40.15 0.4 37.35 0.4L37.35 0.4Q34.55 0.4 34.55-1.95L34.55-1.95 34.55-21.75Q34.55-22.4 34.4-23.05 34.25-23.7 33.85-24.25L33.85-24.25 33.9-24.2Q33.5-24.85 32.9-25.13 32.3-25.4 31.15-25.4L31.15-25.4 28-25.4Q25.9-25.4 25.25-24.2L25.25-24.2Q24.6-23.1 24.6-21.75L24.6-21.75 24.6-1.95Q24.6 0.4 21.85 0.4L21.85 0.4Q19.05 0.4 19.05-1.95L19.05-1.95ZM51.65-22.75L51.65-2.1Q51.65 0.3 48.9 0.3L48.9 0.3Q46.05 0.3 46.05-2.1L46.05-2.1 46.05-22.8Q46.05-26.9 48.5-28.5L48.5-28.5Q50.95-30.1 54.15-30.1L54.15-30.1 59.85-30.1Q61.7-30.1 61.7-27.75L61.7-27.75Q61.8-25.4 59.85-25.4L59.85-25.4 54.55-25.4Q52.75-25.4 52.2-24.7 51.65-24 51.65-22.75L51.65-22.75Z" opacity="1" transform="matrix(1,0,0,1,0,0)" fill="#ffffff" class="wordmark-text-0" data-fill-palette-color="primary" id="text-0"></path></svg></g></svg></g></svg></g></svg></g><g transform="matrix(1,0,0,1,0,6.874347757291304)"><svg viewBox="0 0 244.43135999999998 193.50816" height="193.50816" width="244.43135999999998"><g><svg xmlns="http://www.w3.org/2000/svg" xmlns:xlink="http://www.w3.org/1999/xlink" version="1.1" x="0" y="0" viewBox="5 5 48 38" enable-background="new 0 0 58 48" xml:space="preserve" height="193.50816" width="244.43135999999998" class="icon-icon-0" data-fill-palette-color="accent" id="icon-0"><path fill-rule="evenodd" clip-rule="evenodd" d="M5 43V13h48v30H5zM51 41V15H7v26H51zM9 9h40v2H9V9zM13 5h32v2H13V5zM23.651 35.008L17 28l6.651-7.009 1.365 1.407L19.73 28h0l5.286 5.602L23.651 35.008zM34.349 20.992L41 28l-6.651 7.009-1.365-1.407L38.27 28h0l-5.286-5.602L34.349 20.992z" fill="#ffffff" data-fill-palette-color="accent"></path></svg></g></svg></g></svg></g></svg></g></svg></g><defs></defs></svg><rect width="395.52" height="122.31398042945985" fill="none" stroke="none" visibility="hidden"></rect></g></svg></g></svg>