<svg xmlns="http://www.w3.org/2000/svg" version="1.1" xmlns:xlink="http://www.w3.org/1999/xlink" xmlns:svgjs="http://svgjs.dev/svgjs" width="2000" height="1247" viewBox="0 0 2000 1247"><g transform="matrix(1,0,0,1,-1.2121212121212466,0.504858299595071)"><svg viewBox="0 0 396 247" data-background-color="#ffffff" preserveAspectRatio="xMidYMid meet" height="1247" width="2000" xmlns="http://www.w3.org/2000/svg" xmlns:xlink="http://www.w3.org/1999/xlink"><g id="tight-bounds" transform="matrix(1,0,0,1,0.2400000000000091,-0.09999999999999432)"><svg viewBox="0 0 395.52 247.2" height="247.2" width="395.52"><g><svg></svg></g><g><svg viewBox="0 0 395.52 247.2" height="247.2" width="395.52"><g transform="matrix(1,0,0,1,75.54432,71.49673726263538)"><svg viewBox="0 0 244.43135999999998 104.20652547472925" height="104.20652547472925" width="244.43135999999998"><g><svg viewBox="0 0 379.98378664222014 161.99553994510606" height="104.20652547472925" width="244.43135999999998"><g transform="matrix(1,0,0,1,217.3931704803167,4.6129699725530315)"><svg viewBox="0 0 162.59061616190343 152.7696" height="152.7696" width="162.59061616190343"><g id="textblocktransform"><svg viewBox="0 0 162.59061616190343 152.7696" height="152.7696" width="162.59061616190343" id="textblock"><g><svg viewBox="0 0 162.59061616190343 152.7696" height="152.7696" width="162.59061616190343"><g transform="matrix(1,0,0,1,0,0)"><svg width="162.59061616190343" viewBox="45.531678014826554 -43.91326000000002 63.97634198517353 60.11190266520324" height="152.7696" data-palette-color="#c56e33"><path d="M77.549 3.13v0c-0.014 0.193-0.099 0.36-0.257 0.503-0.151 0.143-0.326 0.257-0.526 0.343-0.2 0.079-0.405 0.155-0.618 0.227-0.212 0.072-0.397 0.135-0.555 0.19v0c-0.23-0.144-0.467-0.247-0.71-0.311-0.25-0.058-0.465-0.184-0.644-0.378v0l-0.23-0.016c-0.346-0.025-0.618 0.002-0.818 0.081v0c-0.298-0.135-0.536-0.313-0.713-0.532-0.178-0.22-0.345-0.449-0.502-0.688-0.157-0.239-0.313-0.474-0.471-0.706-0.158-0.225-0.364-0.424-0.619-0.596v0c-0.308-1.112-0.575-2.23-0.801-3.356-0.22-1.125-0.365-2.265-0.435-3.42v0c0.048-0.104 0.089-0.221 0.125-0.352 0.03-0.132 0.048-0.251 0.056-0.357v0c0.006-0.086-0.004-0.177-0.031-0.273-0.026-0.102-0.092-0.167-0.196-0.194v0c0.119-0.165 0.203-0.363 0.253-0.594 0.05-0.224 0.081-0.432 0.095-0.624v0c0.031-0.432 0.014-0.794-0.052-1.087v0c0.134-0.097 0.2-0.27 0.198-0.517-0.002-0.254 0.068-0.43 0.208-0.526v0c-0.087-0.374-0.118-0.734-0.093-1.08v0c0.034-0.479 0.128-0.94 0.28-1.383 0.153-0.45 0.246-0.911 0.28-1.384v0c0.008-0.113 0.009-0.223 0.004-0.33 0.001-0.107-0.005-0.214-0.017-0.322v0c0.131-0.338 0.256-0.683 0.375-1.036 0.126-0.352 0.202-0.711 0.228-1.077v0c0.019-0.259-0.009-0.479-0.083-0.657v0c0.351-0.977 0.622-1.954 0.812-2.93 0.19-0.976 0.376-1.968 0.555-2.977v0c-0.017-0.048-0.034-0.083-0.052-0.104-0.019-0.021-0.026-0.055-0.023-0.102v0c0.008-0.106 0.074-0.189 0.198-0.247 0.124-0.058 0.18-0.174 0.166-0.349v0c-0.278 0.241-0.509 0.528-0.694 0.863-0.192 0.34-0.37 0.679-0.534 1.014-0.165 0.336-0.339 0.664-0.522 0.985-0.191 0.327-0.425 0.611-0.703 0.852v0c-0.037 0.231-0.123 0.452-0.258 0.663-0.135 0.211-0.213 0.446-0.232 0.705v0c-0.02-0.001-0.039-0.01-0.058-0.024-0.026-0.015-0.058-0.024-0.098-0.027v0c-0.086-0.006-0.15 0.046-0.192 0.156-0.041 0.104-0.113 0.129-0.216 0.075v0c-0.569 0.942-1.186 1.856-1.852 2.744-0.659 0.888-1.484 1.581-2.475 2.078v0c-0.168-0.079-0.329-0.124-0.482-0.135v0c-0.286-0.021-0.568 0.039-0.845 0.18-0.285 0.147-0.47 0.217-0.556 0.211v0c-0.213-0.015-0.47-0.151-0.773-0.407-0.296-0.249-0.607-0.395-0.931-0.438v0c-0.329-0.264-0.597-0.528-0.805-0.79-0.208-0.269-0.536-0.44-0.986-0.512v0c-0.273-0.481-0.541-0.935-0.805-1.361-0.263-0.433-0.516-0.863-0.759-1.288-0.237-0.418-0.443-0.861-0.617-1.327-0.174-0.467-0.293-0.987-0.359-1.56v0c0.023-0.045 0.036-0.088 0.04-0.128v0c0.01-0.133-0.046-0.19-0.168-0.172-0.121 0.011-0.176-0.059-0.166-0.213v0l0.017-0.229c0.012-0.173-0.003-0.331-0.046-0.475-0.043-0.143-0.049-0.301-0.016-0.472v0c-0.136-0.25-0.237-0.508-0.305-0.774-0.068-0.266-0.201-0.502-0.401-0.71v0l0.022-0.3c0.009-0.126 0.011-0.25 0.007-0.37-0.005-0.121-0.03-0.233-0.076-0.336-0.046-0.097-0.122-0.163-0.227-0.197v0c0.036-0.779-0.063-1.585-0.297-2.418-0.234-0.832-0.444-1.636-0.629-2.411v0c-0.214 0.553-0.384 1.112-0.511 1.678-0.128 0.566-0.212 1.141-0.255 1.726v0l-0.04 0.558c-0.012 0.173-0.005 0.347 0.022 0.523v0c-0.074 0.102-0.169 0.168-0.285 0.2-0.123 0.038-0.203 0.122-0.239 0.254v0c-0.028 0.105-0.039 0.211-0.032 0.318-0.001 0.107-0.016 0.216-0.044 0.328v0c-0.077 0.516-0.176 1.007-0.297 1.473v0c-0.185 0.709-0.39 1.419-0.614 2.131-0.225 0.712-0.365 1.448-0.419 2.206v0c-0.003 0.04-0.001 0.1 0.007 0.18 0.001 0.074 0 0.134-0.003 0.181v0c-0.367 0.274-0.577 0.64-0.631 1.097-0.052 0.451-0.137 0.879-0.253 1.285v0c-0.157 0.597-0.329 1.186-0.518 1.768-0.196 0.587-0.37 1.19-0.521 1.807v0c-0.091 0.341-0.173 0.679-0.243 1.015-0.064 0.33-0.131 0.666-0.203 1.008v0c-0.034 0.198-0.116 0.356-0.245 0.474-0.129 0.124-0.22 0.272-0.272 0.442v0c-0.038 0.151-0.056 0.317-0.056 0.497 0 0.187-0.006 0.357-0.017 0.51v0c-0.019 0.259-0.059 0.5-0.122 0.723-0.056 0.223-0.2 0.413-0.432 0.571v0c0.006 0.569 0.068 1.058 0.185 1.467 0.124 0.41 0.265 0.871 0.422 1.383v0l0.818 0.059-0.009 0.13c-0.016 0.219 0.007 0.418 0.067 0.596 0.067 0.179 0.218 0.266 0.452 0.263v0c-0.026 0.085-0.044 0.191-0.053 0.317v0c-0.014 0.193 0.013 0.375 0.081 0.548 0.062 0.165 0.105 0.348 0.131 0.55v0c-0.483 0.68-0.984 1.176-1.5 1.487-0.524 0.31-1.221 0.433-2.092 0.37v0l-0.519-0.037c-0.082-0.353-0.187-0.699-0.317-1.035-0.123-0.336-0.246-0.669-0.369-0.999-0.116-0.336-0.209-0.677-0.277-1.023-0.076-0.34-0.1-0.696-0.074-1.068v0c0.006-0.086 0.022-0.166 0.047-0.237 0.025-0.072 0.041-0.151 0.048-0.237v0c0.008-0.113-0.03-0.183-0.116-0.209-0.085-0.026-0.121-0.136-0.106-0.329v0c0.011-0.153 0.018-0.296 0.02-0.429-0.004-0.127-0.001-0.267 0.011-0.421v0c0.051-0.711 0.155-1.416 0.312-2.113 0.164-0.697 0.291-1.403 0.383-2.118v0c0.114-0.099 0.177-0.235 0.19-0.407 0.012-0.173 0.079-0.308 0.2-0.407v0l0.016-0.229c0.028-0.392 0.099-0.778 0.214-1.158 0.115-0.386 0.238-0.758 0.371-1.116 0.133-0.358 0.256-0.73 0.371-1.116 0.115-0.386 0.186-0.772 0.213-1.158v0l0.038-0.519c0.011-0.153 0.089-0.217 0.234-0.193 0.139 0.017 0.225-0.061 0.258-0.232v0c0.061-0.296 0.109-0.59 0.143-0.882 0.034-0.292 0.082-0.589 0.145-0.892v0c0.148-0.578 0.311-1.157 0.486-1.74 0.176-0.589 0.286-1.186 0.329-1.791v0l0.007-0.1c0.004-0.06 0.067-0.189 0.189-0.387 0.121-0.198 0.189-0.397 0.203-0.597v0c0.011-0.146-0.013-0.288-0.07-0.426v0c0.025 0.022 0.068 0.035 0.128 0.039v0c0.086 0.006 0.148-0.016 0.185-0.067 0.037-0.051 0.09-0.094 0.16-0.129v0c-0.06-0.091-0.087-0.18-0.081-0.266v0c0.008-0.113 0.032-0.215 0.072-0.306 0.04-0.097 0.064-0.199 0.072-0.305v0c0.011-0.153-0.058-0.268-0.206-0.346v0c0.294-0.46 0.52-0.955 0.678-1.485 0.158-0.53 0.285-1.076 0.379-1.637 0.094-0.561 0.185-1.126 0.272-1.695 0.081-0.569 0.217-1.107 0.407-1.615v0c-0.03-0.136-0.047-0.281-0.049-0.435-0.003-0.147 0.001-0.287 0.01-0.42v0c0.006-0.086 0.003-0.177-0.01-0.272-0.013-0.101 0.004-0.194 0.05-0.277v0c0.003-0.047 0.02-0.099 0.051-0.156v0l0.074-0.196c0.058-0.15 0.095-0.304 0.114-0.463 0.025-0.165 0.054-0.334 0.086-0.505v0c0.082-0.495 0.136-1.003 0.16-1.522 0.024-0.52 0.078-1.037 0.162-1.553v0c-0.06-0.091-0.122-0.166-0.184-0.223-0.056-0.058-0.093-0.14-0.113-0.249v0c0.195-0.293 0.405-0.569 0.631-0.827 0.225-0.251 0.516-0.441 0.873-0.569v0c0.049 0.244 0.214 0.376 0.493 0.397v0c0.133 0.01 0.298-0.012 0.496-0.065 0.198-0.053 0.334-0.13 0.408-0.231v0c0.363 0.153 0.735 0.24 1.114 0.26 0.38 0.014 0.723 0.129 1.028 0.345v0c0.043 0.331 0.105 0.673 0.186 1.026 0.088 0.354 0.218 0.681 0.391 0.981v0c0.02 0.282 0.039 0.624 0.057 1.026 0.011 0.402 0.025 0.817 0.04 1.246 0.016 0.422 0.054 0.826 0.114 1.212 0.059 0.385 0.154 0.693 0.284 0.923v0c-0.001 0.388 0.037 0.781 0.116 1.181 0.078 0.4 0.171 0.781 0.278 1.143 0.101 0.368 0.19 0.709 0.268 1.022 0.078 0.306 0.11 0.559 0.096 0.758v0c-0.012 0.173-0.05 0.284-0.115 0.333-0.057 0.049-0.11 0.136-0.159 0.259v0c0.069 0.246 0.174 0.457 0.316 0.635 0.135 0.17 0.281 0.371 0.437 0.603v0c0.237 1.254 0.573 2.484 1.008 3.691 0.434 1.208 0.982 2.377 1.643 3.507v0c0.191 0.04 0.343 0.108 0.456 0.204 0.113 0.095 0.302 0.129 0.565 0.1v0l-0.017 0.23c-0.016 0.219 0.016 0.375 0.097 0.468v0c0.19 0.141 0.415 0.22 0.674 0.239v0c0.279 0.02 0.504-0.044 0.676-0.192 0.178-0.154 0.351-0.332 0.519-0.534 0.162-0.209 0.327-0.404 0.494-0.586 0.167-0.182 0.382-0.297 0.646-0.345v0l0.005-0.07c0.012-0.173 0.06-0.317 0.142-0.431 0.088-0.114 0.138-0.244 0.148-0.39v0c0.252-0.156 0.45-0.359 0.595-0.609 0.152-0.25 0.29-0.507 0.417-0.772 0.126-0.265 0.267-0.512 0.424-0.741 0.163-0.222 0.366-0.401 0.61-0.538v0c0.373-0.909 0.804-1.75 1.294-2.524 0.49-0.767 1.003-1.545 1.542-2.335v0c0.005-0.066-0.003-0.137-0.025-0.212-0.015-0.075-0.02-0.145-0.015-0.212v0c0.001-0.02 0.032-0.115 0.091-0.284v0c0.122-0.212 0.233-0.411 0.334-0.598 0.101-0.193 0.193-0.404 0.276-0.632v0c0.261-0.656 0.508-1.304 0.741-1.941 0.233-0.638 0.554-1.237 0.961-1.796v0l0.059-0.808c0.448-0.75 0.783-1.551 1.005-2.404 0.222-0.853 0.482-1.683 0.78-2.49v0c0.064-0.236 0.164-0.473 0.302-0.711 0.138-0.244 0.297-0.413 0.478-0.507v0c-0.057-0.138-0.081-0.27-0.072-0.396v0c0.012-0.173 0.05-0.327 0.113-0.463 0.064-0.142 0.124-0.285 0.182-0.428v0c-0.055-0.158-0.075-0.356-0.058-0.596v0c0.022-0.306 0.129-0.586 0.321-0.839 0.193-0.26 0.465-0.421 0.817-0.482v0c0.215 0.082 0.39 0.205 0.525 0.368 0.142 0.157 0.277 0.324 0.405 0.501 0.135 0.17 0.278 0.311 0.431 0.422 0.152 0.111 0.36 0.153 0.623 0.125v0c0.149 0.338 0.244 0.689 0.285 1.053 0.041 0.357 0.048 0.722 0.021 1.094v0c-0.035 0.492-0.115 1.001-0.24 1.527-0.125 0.526-0.196 1.059-0.215 1.599v0c-0.198 0.333-0.348 0.7-0.45 1.1-0.108 0.393-0.207 0.794-0.297 1.202-0.096 0.407-0.201 0.801-0.316 1.18-0.115 0.386-0.294 0.744-0.538 1.074v0c-0.136 0.966-0.275 1.912-0.415 2.838-0.14 0.926-0.32 1.848-0.54 2.768v0l-0.423 1.835c-0.058 0.15-0.113 0.313-0.165 0.489-0.06 0.183-0.094 0.337-0.104 0.464v0c-0.01 0.133-0.009 0.27 0.001 0.411 0.017 0.142 0.076 0.249 0.177 0.324v0c-0.169 0.208-0.297 0.46-0.385 0.754-0.082 0.302-0.168 0.623-0.26 0.964v0l-0.242 0.995c-0.063 0.323-0.171 0.609-0.323 0.859v0l-0.025 0.349c-0.063 0.871-0.276 1.748-0.64 2.631v0l-0.012 0.17c-0.008 0.106-0.021 0.196-0.04 0.267-0.012 0.079-0.022 0.172-0.03 0.279v0c-0.011 0.153 0.024 0.276 0.104 0.368v0c-0.213 0.546-0.418 1.113-0.614 1.701-0.196 0.587-0.35 1.191-0.461 1.811v0c-0.127 0.84-0.199 1.7-0.216 2.581-0.017 0.881-0.187 1.721-0.512 2.52v0c0.105 0.402 0.161 0.83 0.168 1.286v0l0.042 1.376c0.007 0.455 0.046 0.899 0.115 1.332 0.063 0.426 0.227 0.792 0.492 1.098v0c0.017 0.041 0.023 0.105 0.016 0.192v0c-0.012 0.173-0.065 0.299-0.157 0.379v0c0.024 0.222 0.087 0.411 0.19 0.565 0.095 0.161 0.191 0.315 0.287 0.462 0.096 0.154 0.177 0.32 0.245 0.499 0.061 0.178 0.082 0.397 0.063 0.656v0c0.156 0.252 0.415 0.454 0.778 0.608 0.356 0.159 0.719 0.316 1.09 0.469 0.369 0.16 0.686 0.353 0.95 0.58 0.271 0.227 0.393 0.533 0.365 0.918zM101.711 15.585v0c-0.279 0.342-0.599 0.541-0.958 0.596-0.354 0.059-0.699-0.026-1.035-0.254v0c-0.182-0.123-0.337-0.264-0.464-0.421v0c-0.525 0.039-1.071-0.028-1.638-0.202-0.561-0.17-1.097-0.323-1.608-0.459v0c-0.488-0.362-0.95-0.743-1.388-1.143-0.438-0.4-0.932-0.758-1.483-1.074v0c-0.091-0.246-0.225-0.453-0.401-0.621-0.173-0.173-0.358-0.334-0.555-0.483-0.206-0.147-0.385-0.312-0.535-0.494-0.15-0.182-0.25-0.434-0.297-0.757v0l-1.343-0.906c-0.127-0.086-0.273-0.269-0.437-0.549-0.165-0.28-0.353-0.585-0.566-0.914-0.211-0.319-0.447-0.648-0.71-0.986-0.257-0.334-0.529-0.599-0.816-0.793v0l-0.157-0.106c-0.091-0.295-0.24-0.568-0.447-0.821-0.209-0.262-0.427-0.518-0.653-0.767-0.224-0.24-0.439-0.482-0.645-0.725-0.2-0.24-0.348-0.485-0.444-0.735v0c-0.096-0.25-0.216-0.52-0.359-0.809-0.142-0.289-0.346-0.512-0.611-0.667v0c-0.208-0.43-0.446-0.84-0.714-1.23-0.273-0.394-0.555-0.781-0.844-1.162v0l-0.836-1.156c-0.262-0.386-0.507-0.797-0.736-1.233v0c-0.066-0.021-0.13-0.064-0.191-0.129-0.057-0.071-0.113-0.125-0.168-0.162v0c-0.105-0.071-0.193-0.078-0.263-0.021v0c-0.039-0.204-0.105-0.405-0.196-0.603-0.095-0.193-0.171-0.401-0.229-0.625v0c-0.083-0.032-0.159-0.063-0.227-0.093-0.068-0.03-0.149-0.077-0.244-0.14v0c-0.16-0.108-0.305-0.234-0.433-0.377-0.127-0.134-0.243-0.277-0.349-0.43v0c-0.408 0.247-0.788 0.578-1.141 0.992-0.361 0.416-0.716 0.852-1.065 1.308-0.349 0.456-0.705 0.912-1.067 1.366-0.354 0.453-0.727 0.832-1.12 1.139v0c-0.062 0.175-0.142 0.335-0.238 0.478v0l-0.308 0.456c-0.205 0.304-0.325 0.577-0.36 0.819v0c-0.147 0.134-0.28 0.265-0.399 0.394-0.125 0.125-0.255 0.246-0.391 0.364v0c-0.118 0.21-0.229 0.404-0.333 0.583-0.105 0.179-0.224 0.368-0.359 0.566v0l-0.308 0.456c-0.108 0.16-0.238 0.31-0.388 0.45v0c-0.248-0.014-0.496-0.034-0.746-0.057-0.244-0.02-0.506-0.02-0.785 0v0c0.03-0.318-0.094-0.599-0.372-0.842v0c-0.132 0.04-0.263 0.128-0.395 0.264-0.132 0.136-0.27 0.156-0.414 0.058v0c-0.12-0.371-0.217-0.673-0.291-0.909-0.074-0.235-0.127-0.544-0.158-0.927v0c0.01-0.05 0.031-0.1 0.065-0.149v0c0.063-0.094 0.136-0.166 0.217-0.215 0.087-0.046 0.155-0.104 0.204-0.177v0c0.146-0.215 0.245-0.422 0.298-0.619v0c0.124-0.254 0.251-0.502 0.382-0.744 0.136-0.238 0.277-0.464 0.423-0.68v0c0.205-0.304 0.427-0.584 0.665-0.841 0.238-0.257 0.525-0.498 0.861-0.722v0c0.55-0.385 1.06-0.837 1.531-1.355 0.469-0.528 0.919-1.069 1.35-1.623 0.429-0.563 0.85-1.139 1.264-1.728 0.405-0.587 0.818-1.133 1.239-1.637v0c0.067-0.373 0.075-0.701 0.025-0.985-0.056-0.287 0.044-0.618 0.298-0.994v0c0.231-0.343 0.518-0.535 0.86-0.577 0.342-0.042 0.685-0.145 1.028-0.307v0c0.032-0.131 0.108-0.184 0.229-0.159v0l2.237-2.616c0.151-0.188 0.327-0.383 0.528-0.585 0.201-0.202 0.38-0.395 0.536-0.579v0c0.313-0.392 0.604-0.787 0.873-1.184 0.265-0.392 0.551-0.774 0.858-1.146v0c0.682-0.819 1.355-1.631 2.02-2.437 0.663-0.815 1.286-1.653 1.869-2.515v0c0.28-0.414 0.546-0.838 0.798-1.271 0.252-0.433 0.472-0.884 0.66-1.352v0c-0.364-0.117-0.764-0.251-1.201-0.401-0.437-0.151-0.859-0.194-1.264-0.13v0l-0.216-0.146c-0.47-0.317-0.966-0.524-1.488-0.619-0.526-0.09-1.051-0.195-1.574-0.315v0c-0.246-0.029-0.464-0.093-0.656-0.19-0.201-0.096-0.42-0.183-0.655-0.262v0c-0.1-0.043-0.236-0.055-0.411-0.035-0.165 0.017-0.302 0.013-0.413-0.014v0l-0.537-0.206c-0.148-0.043-0.256 0.004-0.325 0.142-0.069 0.138-0.168 0.189-0.295 0.151v0c-0.154 0.025-0.309-0.019-0.465-0.133-0.153-0.119-0.276-0.211-0.37-0.274v0l-0.108-0.073c-0.668 0.024-1.289 0.002-1.863-0.064-0.573-0.057-1.171-0.244-1.794-0.56v0l-0.854-0.022c-0.281-0.013-0.546-0.103-0.795-0.271v0c-0.199-0.134-0.338-0.28-0.416-0.438v0c0.002-0.312 0.054-0.627 0.156-0.945 0.1-0.327 0.118-0.657 0.053-0.99v0c0.148-0.029 0.288-0.111 0.42-0.247 0.132-0.136 0.259-0.252 0.38-0.347v0c0.696 0.124 1.393 0.266 2.091 0.423 0.692 0.154 1.393 0.249 2.101 0.285v0c0.044 0.054 0.119 0.116 0.223 0.187v0c0.182 0.123 0.364 0.206 0.545 0.248 0.181 0.042 0.367 0.075 0.56 0.1 0.192 0.025 0.377 0.061 0.554 0.109 0.181 0.042 0.365 0.138 0.553 0.289v0c0.845 0.072 1.679 0.229 2.504 0.473 0.831 0.247 1.679 0.39 2.546 0.429v0c0.088 0.06 0.152 0.127 0.191 0.201 0.04 0.083 0.096 0.149 0.168 0.198v0c0.072 0.049 0.122 0.07 0.149 0.064v0c0.208-0.069 0.422-0.077 0.643-0.024 0.223 0.062 0.444 0.135 0.662 0.218 0.221 0.077 0.444 0.135 0.667 0.173 0.227 0.033 0.428-0.02 0.603-0.16v0c0.04 0.132 0.148 0.257 0.325 0.377v0c0.309 0.209 0.637 0.338 0.982 0.386 0.345 0.048 0.673 0.177 0.983 0.386v0c0.072 0.049 0.129 0.107 0.171 0.176 0.042 0.069 0.099 0.127 0.17 0.175v0c0.144 0.097 0.251 0.105 0.322 0.025 0.074-0.086 0.18-0.136 0.317-0.148v0c1.234 0.544 2.446 1.101 3.637 1.672 1.196 0.575 2.353 1.239 3.469 1.994v0c0.24 0.001 0.457 0.068 0.65 0.198v0c0.199 0.134 0.341 0.311 0.427 0.529v0c0.335 0.17 0.661 0.35 0.976 0.539 0.315 0.189 0.627 0.388 0.936 0.596v0c0.702 0.474 1.39 1.003 2.065 1.588 0.681 0.588 1.32 1.226 1.919 1.912 0.597 0.677 1.123 1.398 1.579 2.165 0.45 0.763 0.817 1.554 1.1 2.372v0c-0.053 0.198-0.089 0.406-0.109 0.626-0.018 0.229 0.015 0.436 0.099 0.622v0c-0.022 0.033-0.047 0.057-0.073 0.072-0.022 0.009-0.045 0.03-0.067 0.063v0c-0.134 0.199-0.202 0.431-0.204 0.695-0.003 0.255-0.091 0.51-0.262 0.764v0c-0.172 0.254-0.383 0.477-0.634 0.67-0.249 0.202-0.449 0.433-0.601 0.693v0c-0.393 0.153-0.736 0.303-1.029 0.451-0.295 0.139-0.58 0.376-0.856 0.713v0c-0.546 0.106-1.077 0.266-1.592 0.481-0.51 0.219-1.018 0.423-1.523 0.612-0.515 0.191-1.036 0.33-1.562 0.418-0.535 0.089-1.086 0.071-1.652-0.055v0c-0.14 0.171-0.346 0.321-0.619 0.451v0l-0.563-0.38c-0.152 0.106-0.316 0.152-0.492 0.138v0l-0.527-0.042c-0.17-0.01-0.334 0.012-0.491 0.066-0.154 0.049-0.298 0.173-0.432 0.372v0c-0.022-0.039-0.061-0.077-0.116-0.114v0c-0.182-0.123-0.452-0.177-0.809-0.161-0.366 0.018-0.657 0.031-0.871 0.04v0c-0.455 0.006-0.901-0.006-1.34-0.036-0.438-0.03-0.881 0.036-1.329 0.199v0c-0.923-0.181-1.846-0.286-2.769-0.313-0.924-0.037-1.84-0.193-2.749-0.469v0c-0.496 0.115-0.996 0.128-1.498 0.038-0.499-0.096-0.997-0.167-1.496-0.215v0l-0.056 0.083c-0.097 0.144-0.135 0.319-0.114 0.526 0.017 0.213 0.064 0.417 0.14 0.614 0.076 0.196 0.189 0.369 0.338 0.518 0.14 0.151 0.286 0.25 0.439 0.297v0c0.139 0.569 0.376 1.111 0.712 1.627 0.339 0.511 0.704 1.019 1.094 1.524 0.394 0.5 0.773 1.005 1.136 1.515 0.367 0.505 0.666 1.033 0.898 1.584v0l0.646 0.437c0.172 0.639 0.478 1.24 0.918 1.803 0.45 0.561 0.885 1.089 1.308 1.583v0c0.081 0.344 0.254 0.678 0.518 1.002 0.27 0.327 0.557 0.593 0.86 0.798v0l0.158 0.107c0.072 0.049 0.141 0.083 0.207 0.103v0l-0.034 0.05c-0.06 0.088-0.071 0.165-0.034 0.23 0.037 0.065 0.082 0.123 0.135 0.176 0.063 0.05 0.115 0.11 0.157 0.178 0.042 0.069 0.064 0.144 0.065 0.225v0l0.265 0.179c0.381 0.258 0.691 0.579 0.929 0.966 0.236 0.377 0.545 0.694 0.926 0.951v0c0.16 0.108 0.296 0.176 0.406 0.202v0c0.088 0.108 0.122 0.236 0.103 0.384-0.021 0.139-0.009 0.275 0.037 0.41v0c0.138 0.069 0.264 0.134 0.376 0.194 0.114 0.069 0.224 0.139 0.328 0.21v0c0.398 0.269 0.738 0.563 1.021 0.883 0.277 0.316 0.537 0.688 0.778 1.117v0c0.746 0.134 1.452 0.309 2.119 0.526 0.666 0.217 1.311 0.536 1.935 0.958v0l-0.033 0.049c-0.146 0.215-0.221 0.458-0.226 0.728-0.015 0.272-0.043 0.534-0.086 0.787zM105.916-12.916v0c0.146-0.215 0.223-0.413 0.231-0.592 0.003-0.183-0.025-0.367-0.085-0.552-0.06-0.185-0.126-0.367-0.2-0.545-0.073-0.178-0.116-0.376-0.129-0.594v0c-0.373-0.461-0.721-0.934-1.045-1.419-0.328-0.479-0.684-0.941-1.068-1.385v0c-0.195-0.212-0.396-0.42-0.604-0.625-0.202-0.201-0.419-0.38-0.651-0.536v0l-0.596-0.403c-0.094-0.087-0.192-0.186-0.295-0.296-0.097-0.106-0.193-0.203-0.287-0.29v0c-0.228-0.21-0.458-0.406-0.69-0.587-0.228-0.186-0.467-0.363-0.715-0.531v0c-0.47-0.317-0.952-0.615-1.448-0.894v0l-1.473-0.838c-0.21-0.118-0.423-0.249-0.638-0.395-0.215-0.146-0.425-0.259-0.628-0.34v0c-0.105-0.047-0.258-0.094-0.459-0.141-0.205-0.042-0.419-0.094-0.643-0.157-0.222-0.053-0.442-0.102-0.662-0.145-0.22-0.044-0.404-0.092-0.554-0.145v0c-0.069 0.138-0.147 0.271-0.232 0.398v0l-0.235 0.348c-0.183 0.271-0.374 0.536-0.574 0.795-0.199 0.259-0.416 0.503-0.651 0.731v0c-0.091 0.099-0.192 0.188-0.301 0.268-0.108 0.088-0.207 0.182-0.298 0.281v0c-0.147 0.134-0.288 0.301-0.422 0.499v0l-0.342 0.506c-0.313 0.392-0.615 0.779-0.905 1.162-0.285 0.387-0.583 0.773-0.892 1.159v0c-0.913 1.113-1.823 2.216-2.73 3.309-0.903 1.087-1.776 2.212-2.617 3.373v0c0.679 0.282 1.372 0.476 2.079 0.584 0.713 0.112 1.428 0.196 2.146 0.255 0.726 0.056 1.446 0.116 2.159 0.179 0.713 0.064 1.427 0.192 2.142 0.385v0c0.278-0.102 0.562-0.147 0.852-0.136 0.292 0.02 0.577-0.021 0.855-0.122v0c0.177 0.119 0.337 0.168 0.482 0.144 0.15-0.019 0.308 0.003 0.474 0.067v0c1.373-0.175 2.734-0.289 4.082-0.344 1.352-0.06 2.693-0.188 4.024-0.383v0c0.243-0.206 0.533-0.372 0.868-0.5 0.335-0.127 0.667-0.261 0.995-0.401 0.337-0.142 0.655-0.297 0.955-0.466 0.289-0.166 0.531-0.393 0.725-0.681z" opacity="1" transform="matrix(1,0,0,1,0,0)" fill="#c56e33" class="wordmark-text-0" data-fill-palette-color="primary" id="text-0"></path></svg></g></svg></g></svg></g></svg></g><g><svg viewBox="0 0 150.7215011820845 161.99553994510606" height="161.99553994510606" width="150.7215011820845"><g><svg xmlns="http://www.w3.org/2000/svg" xmlns:xlink="http://www.w3.org/1999/xlink" version="1.1" x="0" y="0" viewBox="5.34501 2.0047909882914214 89.30999 95.9904190117086" style="enable-background:new 0 0 100 100;" xml:space="preserve" height="161.99553994510606" width="150.7215011820845" class="icon-icon-0" data-fill-palette-color="accent" id="icon-0"><g fill="#c56e33" data-fill-palette-color="accent"><g fill="#c56e33" data-fill-palette-color="accent"><path d="M56.885 80.115c0-8.25 5.05-15.34 12.21-18.34-1.1-0.3-2.24-0.45-3.38-0.45h-0.25c-0.82 0-4.05 0-14.99-0.01-0.66-0.02-1.19-0.55-1.19-1.21v-4.52c0-0.04-0.02-0.07-0.02-0.11 4.97-2.42 8.25-7.52 9.12-14.45 3.7-0.98 6.23-4.29 6.23-8.29v-1.17c0-1.54-0.93-2.86-2.29-3.42 0.14-0.66 0.24-1.31 0.28-1.97 0.67-11.81-2.98-21.51-14.55-23.71-8.291-1.548-18.956 0.744-23.48 7.84-1.29 2.04-2.03 4.59-2.14 7.37-0.21 7.6-0.44 8.18-0.17 10.43-3.11 1.03-2.5 4.47-2.56 4.68 0 4.14 2.52 7.49 6.19 8.37 0.89 6.85 4.15 11.89 9.08 14.3 0 0.04-0.02 0.08-0.02 0.12v4.53c0 0.68-0.54 1.22-1.22 1.22H17.975c-6.96 0-12.63 5.67-12.63 12.63v20.79c0 0.55 0.45 1 1 1h8.94V80.105c0-0.55 0.44-1 1-1 0.55 0 1 0.45 1 1v15.64h47.22C59.865 92.105 56.885 86.455 56.885 80.115zM27.635 37.225v-0.11c0.32-4.92 0.73-8.96 2.72-13.49 4.37 2.5 7.58 3.18 13.15 2.75 5.41-0.4 5.98-3.69 6.95-6.94 0.16-0.52 1.02-0.61 1.29-0.07 0.05 0.1 2.21 4.48 2.31 4.58 1.66 4.11 2.57 8.82 2.57 13.28 0 10.99-5.55 17.82-14.49 17.82S27.635 48.215 27.635 37.225zM34.345 74.025l-6.97-10.68 6.29-0.01 6.45 5.33L34.345 74.025zM35.835 62.525c0.68-0.59 1.12-1.45 1.12-2.42v-3.84c1.59 0.51 3.33 0.78 5.18 0.78 1.84 0 3.56-0.27 5.15-0.77v3.83c0 0.94 0.41 1.78 1.06 2.37l-6.68 4.88L35.835 62.525zM48.955 74.055l-5.76-5.34 7.37-5.39c0.1 0 5.61 0.01 6.01 0.01L48.955 74.055z" fill="#c56e33" data-fill-palette-color="accent"></path></g><path d="M76.765 62.225c-9.86 0-17.88 8.02-17.88 17.89 0 9.86 8.02 17.88 17.88 17.88S94.655 89.975 94.655 80.115C94.655 70.245 86.625 62.225 76.765 62.225zM70.768 82.82c0.41 0.37 0.442 1.003 0.071 1.412-0.37 0.41-1.003 0.442-1.412 0.072l-3.629-3.277c-0.203-0.184-0.322-0.442-0.329-0.717-0.007-0.273 0.099-0.539 0.292-0.732l3.629-3.629c0.391-0.391 1.023-0.391 1.414 0s0.391 1.023 0 1.414l-2.885 2.885L70.768 82.82zM80.015 73.942l-4.608 13.001c-0.184 0.521-0.756 0.792-1.277 0.608-0.521-0.185-0.793-0.756-0.608-1.276l4.608-13.001c0.185-0.521 0.756-0.792 1.276-0.608C79.927 72.85 80.199 73.421 80.015 73.942zM87.739 81.027l-3.629 3.277c-0.41 0.37-1.043 0.338-1.413-0.072-0.37-0.409-0.338-1.042 0.072-1.412l2.848-2.572-2.885-2.885c-0.391-0.391-0.391-1.023 0-1.414s1.023-0.391 1.414 0l3.629 3.629c0.194 0.193 0.3 0.459 0.293 0.732C88.061 80.585 87.942 80.843 87.739 81.027z" fill="#c56e33" data-fill-palette-color="accent"></path></g></svg></g></svg></g></svg></g></svg></g><path d="M235.558 65.497L235.558 5.009 0 5.009 0 242.191 235.558 242.191 235.558 181.703 231.03 181.703 231.03 237.663 4.528 237.663 4.528 9.537 231.03 9.537 231.03 65.497Z" fill="#c56e33" stroke="transparent" data-fill-palette-color="primary"></path></svg></g><defs></defs></svg><rect width="395.52" height="247.2" fill="none" stroke="none" visibility="hidden"></rect></g></svg></g></svg>